<?xml version="1.0" ?><svg height="50px" version="1.1" viewBox="0 0 295 295" width="50px" xmlns="http://www.w3.org/2000/svg" xmlns:xlink="http://www.w3.org/1999/xlink"><title/><desc/><defs/><g fill="none" fill-rule="evenodd" id="Page-1" stroke="none" stroke-width="1"><g fill-rule="nonzero" id="note"><path d="M288.842,0 L6,0 C2.687,0 0,2.687 0,6 L0,288.842 C0,292.155 2.687,294.842 6,294.842 L246.421,294.842 C249.734,294.842 252.421,292.155 252.421,288.842 C252.421,285.529 249.734,282.842 246.421,282.842 L12,282.842 L12,12 L282.842,12 L282.842,288.842 C282.842,292.155 285.529,294.842 288.842,294.842 C292.155,294.842 294.842,292.155 294.842,288.842 L294.842,6 C294.842,2.687 292.155,0 288.842,0 Z" fill="#000000" id="Shape"/><path d="M65.815,62.421 C53.132,62.421 42.815,72.738 42.815,85.421 C42.815,98.104 53.132,108.421 65.815,108.421 C78.498,108.421 88.815,98.104 88.815,85.421 C88.815,72.738 78.498,62.421 65.815,62.421 Z M65.815,96.421 C59.75,96.421 54.815,91.486 54.815,85.421 C54.815,79.356 59.75,74.421 65.815,74.421 C71.88,74.421 76.815,79.356 76.815,85.421 C76.815,91.486 71.881,96.421 65.815,96.421 Z" fill="#FB4A5E" id="Shape"/><path d="M246.815,79.421 L106.815,79.421 C103.502,79.421 100.815,82.108 100.815,85.421 C100.815,88.734 103.502,91.421 106.815,91.421 L246.815,91.421 C250.128,91.421 252.815,88.734 252.815,85.421 C252.815,82.108 250.129,79.421 246.815,79.421 Z" fill="#FB4A5E" id="Shape"/><path d="M65.815,124.421 C62.502,124.421 59.815,127.108 59.815,130.421 C59.815,133.734 62.502,136.421 65.815,136.421 C71.88,136.421 76.815,141.356 76.815,147.421 C76.815,153.486 71.88,158.421 65.815,158.421 C59.75,158.421 54.815,153.486 54.815,147.421 C54.815,144.108 52.128,141.421 48.815,141.421 C45.502,141.421 42.815,144.108 42.815,147.421 C42.815,160.104 53.132,170.421 65.815,170.421 C78.498,170.421 88.815,160.104 88.815,147.421 C88.815,134.738 78.498,124.421 65.815,124.421 Z" fill="#FB4A5E" id="Shape"/><path d="M246.815,141.421 L106.815,141.421 C103.502,141.421 100.815,144.108 100.815,147.421 C100.815,150.734 103.502,153.421 106.815,153.421 L246.815,153.421 C250.128,153.421 252.815,150.734 252.815,147.421 C252.815,144.108 250.129,141.421 246.815,141.421 Z" fill="#FB4A5E" id="Shape"/><path d="M65.815,186.421 C53.132,186.421 42.815,196.738 42.815,209.421 C42.815,222.104 53.132,232.421 65.815,232.421 C78.498,232.421 88.815,222.104 88.815,209.421 C88.815,196.738 78.498,186.421 65.815,186.421 Z M65.815,220.421 C59.75,220.421 54.815,215.486 54.815,209.421 C54.815,203.356 59.75,198.421 65.815,198.421 C71.88,198.421 76.815,203.356 76.815,209.421 C76.815,215.486 71.881,220.421 65.815,220.421 Z" fill="#FB4A5E" id="Shape"/><path d="M246.815,203.421 L106.815,203.421 C103.502,203.421 100.815,206.108 100.815,209.421 C100.815,212.734 103.502,215.421 106.815,215.421 L246.815,215.421 C250.128,215.421 252.815,212.734 252.815,209.421 C252.815,206.108 250.129,203.421 246.815,203.421 Z" fill="#FB4A5E" id="Shape"/></g></g></svg>